<?xml version="1.0" encoding="UTF-8" standalone="no"?>
<svg
   xmlns:dc="http://purl.org/dc/elements/1.1/"
   xmlns:cc="http://creativecommons.org/ns#"
   xmlns:rdf="http://www.w3.org/1999/02/22-rdf-syntax-ns#"
   xmlns:svg="http://www.w3.org/2000/svg"
   xmlns="http://www.w3.org/2000/svg"
   width="25.09197mm"
   height="19.227909mm"
   viewBox="0 0 25.09197 19.227909"
   version="1.1"
   id="svg75">
  <defs
     id="defs69" />
  <metadata
     id="metadata72">
    <rdf:RDF>
      <cc:Work
         rdf:about="">
        <dc:format>image/svg+xml</dc:format>
        <dc:type
           rdf:resource="http://purl.org/dc/dcmitype/StillImage" />
        <dc:title></dc:title>
      </cc:Work>
    </rdf:RDF>
  </metadata>
  <g
     id="layer1"
     transform="translate(-92.939137,-111.31272)">
    <path
       style="fill:#ffffff;stroke-width:0.264583"
       d="m 110.47139,124.6734 0.93796,-0.78288 1.0306,-0.73656 0.18851,-0.0108 0.18851,-0.0108 1.49975,0.56113 c 1.07715,0.23681 1.73015,0.76928 2.51599,1.47924 1.33165,0.89436 1.40092,2.45855 0.94243,3.58482 -4.3716,4.83986 -9.07351,-2.70506 -7.30375,-4.08415 z m 4.37495,4.26937 c 3.76993,-0.84182 0.26926,-3.82024 -1.53153,-4.10678 -1.59655,-0.0412 -2.27359,1.24066 -1.13066,2.81234 0.81852,0.78033 1.61945,1.27497 2.6622,1.29453 z m -19.044123,1.59786 H 95.01534 l -0.15823,-0.25603 -0.15823,-0.25602 4.129703,-3.06158 4.129697,-3.06159 1.23844,-0.65481 1.23843,-0.65481 1.5118,-0.4092 2.0752,-0.86542 v 0 0 c 1.61791,-0.5851 0.11105,-0.9749 -0.0232,-1.45049 l -0.58664,-0.99428 0.58664,0.99428 c -0.63774,-0.74014 -0.87557,-1.64024 -0.28177,-2.87299 l 0.6735,-0.883 v 0 c 0.33352,-0.66301 0.93991,-1.05315 1.51055,-1.47904 v 0 c 0.54907,-0.39221 0.9642,-0.61275 2.58029,-0.74605 v 0 c 2.47417,1.10342 2.48232,-1.22766 2.27624,-2.35874 v 0 l 0.21814,-0.21814 -0.21814,0.21814 c 0.27051,-0.17157 0.54101,-0.35328 0.81152,0.0769 v 0 l -0.59338,-0.29504 c 0.99554,0.23909 1.27113,1.68073 0.45977,3.25808 v 0 c -0.2622,0.21117 -0.46701,0.59452 -0.36285,1.90477 v 0 c 0.18832,1.47751 -1.21422,3.39116 -1.21422,3.39116 v 0 l -1.40445,1.1842 v 0 l -1.40445,1.18421 -2.64583,2.01174 -2.64583,2.01174 -1.85208,0.91917 -1.85209,0.91916 -3.232262,1.22184 -3.232403,1.22184 z m 12.940223,-6.61459 v 0 c 0.62418,0.0572 0.73498,-0.39895 0.88059,-0.82031 v 0 0 c -0.0801,-0.56031 -0.30829,-0.93552 -0.88059,-0.88058 v 0 c -0.55469,0.0324 -0.94048,0.23362 -0.88058,0.88058 v 0 0 c 0.002,0.63805 0.38852,0.79504 0.88058,0.82031 z m 4.52904,-5.26054 1.02721,-1.0272 c 0,-0.70882 0,-0.70882 0,0 0.84561,-1.16362 1.04792,-3.21625 -1.89168,-2.33119 -0.3925,0.12061 -1.06289,0.56724 -1.45539,1.03853 -0.61403,0.68596 -0.98954,1.46135 -0.62168,2.51552 v 0 c 1.22322,1.3551 2.27818,0.44539 2.94154,-0.19566 z m -12.06966,5.18855 v 0 l -4.101043,-0.96932 -4.101042,-0.96932 v 0 c -0.235134,-0.5707 0.265885,-0.69971 0.615174,-0.91976 l 6.264001,-0.17909 v 0 0 c 2.29314,0.1323 5.16329,-0.24027 6.57111,0.66669 v 0 0 0 c -0.77588,0.0683 -1.40293,0.18628 -1.80861,0.37802 v 0 c -1.32605,0.39498 -2.34517,1.25035 -3.43959,1.99278 z"
       id="path88" />
  </g>
</svg>
